<svg width="683" height="75" viewBox="0 0 683 75" fill="none" xmlns="http://www.w3.org/2000/svg">
<path d="M28.4911 25.288C33.9311 25.288 38.6831 26.328 42.7471 28.408C46.8111 30.456 49.9631 33.336 52.2031 37.048C54.4751 40.76 55.6111 45.08 55.6111 50.008C55.6111 54.552 54.4271 58.664 52.0591 62.344C49.6911 66.024 46.4111 68.952 42.2191 71.128C38.0591 73.272 33.2271 74.344 27.7231 74.344C22.2831 74.344 17.5311 73.304 13.4671 71.224C9.40313 69.112 6.23513 66.2 3.96313 62.488C1.72313 58.776 0.603125 54.488 0.603125 49.624C0.603125 44.984 1.78713 40.84 4.15513 37.192C6.52313 33.512 9.78713 30.616 13.9471 28.504C18.1391 26.36 22.9871 25.288 28.4911 25.288ZM31.9951 67.384C33.2111 67.096 34.1391 66.248 34.7791 64.84C35.4191 63.432 35.7071 61.384 35.6431 58.696C35.5791 56.008 35.0991 52.6 34.2031 48.472C33.3711 44.504 32.4271 41.272 31.3711 38.776C30.3471 36.28 29.2271 34.488 28.0111 33.4C26.7951 32.312 25.5311 31.928 24.2191 32.248C23.0031 32.536 22.0751 33.384 21.4351 34.792C20.7951 36.2 20.5071 38.248 20.5711 40.936C20.6671 43.592 21.1471 47 22.0111 51.16C22.8431 55.096 23.7871 58.328 24.8431 60.856C25.8991 63.352 27.0191 65.144 28.2031 66.232C29.4191 67.288 30.6831 67.672 31.9951 67.384ZM95.9836 63.16V62.536H95.2636V40.36C95.2636 39.336 95.1196 38.616 94.8316 38.2C94.5756 37.752 94.1756 37.448 93.6316 37.288L92.5756 36.952C91.9036 36.728 91.4076 36.408 91.0876 35.992C90.7996 35.576 90.6556 35.048 90.6556 34.408C90.6556 33.64 90.8636 33.032 91.2796 32.584C91.6956 32.136 92.4796 31.688 93.6316 31.24L104.288 27.112C105.92 26.472 107.232 26.008 108.224 25.72C109.248 25.432 110.24 25.288 111.2 25.288C112.64 25.288 113.728 25.704 114.464 26.536C115.232 27.336 115.616 28.36 115.616 29.608V62.92C115.616 64.2 115.712 65.112 115.904 65.656C116.096 66.168 116.432 66.536 116.912 66.76L117.968 67.24C118.704 67.56 119.232 67.96 119.552 68.44C119.872 68.92 120.032 69.48 120.032 70.12C120.032 71.016 119.744 71.72 119.168 72.232C118.592 72.744 117.664 73 116.384 73H104.624C102.352 73 100.336 72.024 98.5756 70.072C96.8476 68.12 95.9836 65.816 95.9836 63.16ZM64.2556 58.984V40.36C64.2556 39.336 64.1116 38.616 63.8236 38.2C63.5676 37.752 63.1676 37.448 62.6236 37.288L61.5676 36.952C60.8956 36.728 60.3996 36.408 60.0796 35.992C59.7916 35.576 59.6476 35.048 59.6476 34.408C59.6476 33.64 59.8556 33.032 60.2716 32.584C60.6876 32.136 61.4716 31.688 62.6236 31.24L73.2796 27.112C75.0076 26.44 76.3676 25.976 77.3596 25.72C78.3516 25.432 79.2316 25.288 79.9996 25.288C81.5356 25.288 82.6876 25.704 83.4556 26.536C84.2236 27.336 84.6076 28.36 84.6076 29.608V56.104C84.6076 58.152 85.0716 59.688 85.9996 60.712C86.9596 61.736 88.2876 62.248 89.9836 62.248C91.0396 62.248 92.1436 62.04 93.2956 61.624C94.4476 61.208 95.4716 60.6 96.3676 59.8L98.0476 58.312L100.928 61.384L99.4876 62.728C94.9756 67.048 91.0556 70.072 87.7276 71.8C84.3996 73.496 81.3436 74.344 78.5596 74.344C74.3036 74.344 70.8476 72.92 68.1916 70.072C65.5676 67.224 64.2556 63.528 64.2556 58.984ZM148.477 46.792C148.477 41.896 149.117 37.864 150.397 34.696C151.677 31.496 153.373 29.128 155.485 27.592C157.629 26.056 159.965 25.288 162.493 25.288C165.885 25.288 168.477 26.312 170.269 28.36C172.093 30.376 173.005 33.432 173.005 37.528C173.005 41.72 172.157 44.808 170.461 46.792C168.797 48.776 166.621 49.768 163.933 49.768C161.213 49.768 159.165 49.08 157.789 47.704C156.445 46.296 155.773 44.36 155.773 41.896V39.88C155.741 39.048 155.549 38.424 155.197 38.008C154.877 37.56 154.365 37.336 153.661 37.336C153.021 37.336 152.445 37.624 151.933 38.2C151.453 38.744 151.069 39.656 150.781 40.936C150.493 42.184 150.349 43.88 150.349 46.024L148.477 46.792ZM149.005 29.608L150.349 39.64V62.92C150.349 64.04 150.509 64.84 150.829 65.32C151.149 65.768 151.885 66.104 153.037 66.328L156.685 67.048C157.645 67.24 158.349 67.576 158.797 68.056C159.245 68.536 159.469 69.208 159.469 70.072C159.469 71 159.149 71.72 158.509 72.232C157.901 72.744 156.989 73 155.773 73H129.229C127.949 73 127.021 72.744 126.445 72.232C125.869 71.72 125.581 71.016 125.581 70.12C125.581 69.48 125.741 68.92 126.061 68.44C126.381 67.96 126.909 67.56 127.645 67.24L128.701 66.76C129.181 66.536 129.517 66.168 129.709 65.656C129.901 65.112 129.997 64.2 129.997 62.92V40.552C129.997 39.528 129.853 38.808 129.565 38.392C129.309 37.944 128.909 37.64 128.365 37.48L127.309 37.144C126.637 36.92 126.141 36.6 125.821 36.184C125.533 35.768 125.389 35.24 125.389 34.6C125.389 33.832 125.597 33.224 126.013 32.776C126.461 32.296 127.245 31.848 128.365 31.432L138.685 27.4C140.957 26.504 142.589 25.928 143.581 25.672C144.573 25.416 145.341 25.288 145.885 25.288C146.781 25.288 147.469 25.624 147.949 26.296C148.429 26.936 148.781 28.04 149.005 29.608ZM244.403 40.12C244.403 42.552 243.475 44.616 241.619 46.312C239.795 48.008 237.347 48.856 234.275 48.856C231.299 48.856 229.059 48.072 227.555 46.504C226.083 44.904 225.347 42.872 225.347 40.408V38.872C225.347 36.792 224.915 35.16 224.051 33.976C223.187 32.76 222.051 32.152 220.643 32.152C219.523 32.152 218.467 32.568 217.475 33.4C216.515 34.232 215.731 35.512 215.123 37.24C214.515 38.936 214.211 41.096 214.211 43.72C214.211 47.432 214.835 50.536 216.083 53.032C217.363 55.528 219.107 57.416 221.315 58.696C223.523 59.944 226.035 60.568 228.851 60.568C230.899 60.568 232.739 60.328 234.371 59.848C236.035 59.336 237.683 58.36 239.315 56.92C240.243 56.088 240.947 55.528 241.427 55.24C241.907 54.952 242.371 54.808 242.819 54.808C243.459 54.808 243.923 55.128 244.211 55.768C244.531 56.408 244.691 57.192 244.691 58.12C244.691 60.968 243.731 63.64 241.811 66.136C239.923 68.6 237.283 70.584 233.891 72.088C230.499 73.592 226.563 74.344 222.083 74.344C217.187 74.344 212.787 73.384 208.883 71.464C205.011 69.512 201.939 66.808 199.667 63.352C197.395 59.864 196.259 55.8 196.259 51.16C196.259 46.2 197.347 41.768 199.523 37.864C201.731 33.96 204.835 30.888 208.835 28.648C212.867 26.408 217.619 25.288 223.091 25.288C227.475 25.288 231.251 25.96 234.419 27.304C237.619 28.616 240.083 30.392 241.811 32.632C243.539 34.872 244.403 37.368 244.403 40.12ZM277.679 25.288C283.119 25.288 287.871 26.328 291.935 28.408C295.999 30.456 299.151 33.336 301.391 37.048C303.663 40.76 304.799 45.08 304.799 50.008C304.799 54.552 303.615 58.664 301.247 62.344C298.879 66.024 295.599 68.952 291.407 71.128C287.247 73.272 282.415 74.344 276.911 74.344C271.471 74.344 266.719 73.304 262.655 71.224C258.591 69.112 255.423 66.2 253.151 62.488C250.911 58.776 249.791 54.488 249.791 49.624C249.791 44.984 250.975 40.84 253.343 37.192C255.711 33.512 258.975 30.616 263.135 28.504C267.327 26.36 272.175 25.288 277.679 25.288ZM281.183 67.384C282.399 67.096 283.327 66.248 283.967 64.84C284.607 63.432 284.895 61.384 284.831 58.696C284.767 56.008 284.287 52.6 283.391 48.472C282.559 44.504 281.615 41.272 280.559 38.776C279.535 36.28 278.415 34.488 277.199 33.4C275.983 32.312 274.719 31.928 273.407 32.248C272.191 32.536 271.263 33.384 270.623 34.792C269.983 36.2 269.695 38.248 269.759 40.936C269.855 43.592 270.335 47 271.199 51.16C272.031 55.096 272.975 58.328 274.031 60.856C275.087 63.352 276.207 65.144 277.391 66.232C278.607 67.288 279.871 67.672 281.183 67.384ZM334.755 4.84V62.92C334.755 64.2 334.851 65.112 335.043 65.656C335.235 66.168 335.571 66.536 336.051 66.76L337.107 67.24C337.843 67.56 338.371 67.96 338.691 68.44C339.011 68.92 339.171 69.48 339.171 70.12C339.171 71.016 338.883 71.72 338.307 72.232C337.731 72.744 336.803 73 335.523 73H313.635C312.355 73 311.427 72.744 310.851 72.232C310.275 71.72 309.987 71.016 309.987 70.12C309.987 69.48 310.147 68.92 310.467 68.44C310.787 67.96 311.315 67.56 312.051 67.24L313.107 66.76C313.587 66.536 313.923 66.168 314.115 65.656C314.307 65.112 314.403 64.2 314.403 62.92V15.592C314.403 14.568 314.259 13.848 313.971 13.432C313.715 12.984 313.315 12.68 312.771 12.52L311.715 12.184C311.043 11.96 310.547 11.64 310.227 11.224C309.939 10.808 309.795 10.28 309.795 9.64C309.795 8.872 310.003 8.264 310.419 7.816C310.835 7.368 311.619 6.92 312.771 6.472L323.427 2.34399C325.155 1.672 326.515 1.208 327.507 0.951998C328.499 0.663996 329.379 0.519995 330.147 0.519995C331.683 0.519995 332.835 0.935995 333.603 1.768C334.371 2.568 334.755 3.592 334.755 4.84ZM368.505 4.84V62.92C368.505 64.2 368.601 65.112 368.793 65.656C368.985 66.168 369.321 66.536 369.801 66.76L370.857 67.24C371.593 67.56 372.121 67.96 372.441 68.44C372.761 68.92 372.921 69.48 372.921 70.12C372.921 71.016 372.633 71.72 372.057 72.232C371.481 72.744 370.553 73 369.273 73H347.385C346.105 73 345.177 72.744 344.601 72.232C344.025 71.72 343.737 71.016 343.737 70.12C343.737 69.48 343.897 68.92 344.217 68.44C344.537 67.96 345.065 67.56 345.801 67.24L346.857 66.76C347.337 66.536 347.673 66.168 347.865 65.656C348.057 65.112 348.153 64.2 348.153 62.92V15.592C348.153 14.568 348.009 13.848 347.721 13.432C347.465 12.984 347.065 12.68 346.521 12.52L345.465 12.184C344.793 11.96 344.297 11.64 343.977 11.224C343.689 10.808 343.545 10.28 343.545 9.64C343.545 8.872 343.753 8.264 344.169 7.816C344.585 7.368 345.369 6.92 346.521 6.472L357.177 2.34399C358.905 1.672 360.265 1.208 361.257 0.951998C362.249 0.663996 363.129 0.519995 363.897 0.519995C365.433 0.519995 366.585 0.935995 367.353 1.768C368.121 2.568 368.505 3.592 368.505 4.84ZM426.111 43.816C426.111 46.056 425.503 47.8 424.287 49.048C423.071 50.264 421.327 50.872 419.055 50.872H390.591V45.88H403.407C405.167 45.88 406.047 45.048 406.047 43.384C406.047 39.352 405.583 36.472 404.655 34.744C403.727 33.016 402.495 32.152 400.959 32.152C399.839 32.152 398.831 32.568 397.935 33.4C397.039 34.232 396.319 35.512 395.775 37.24C395.263 38.936 395.007 41.096 395.007 43.72C395.007 49.544 396.319 53.816 398.943 56.536C401.567 59.224 405.151 60.568 409.695 60.568C411.807 60.568 413.727 60.328 415.455 59.848C417.183 59.368 418.879 58.392 420.543 56.92C421.471 56.088 422.175 55.528 422.655 55.24C423.135 54.952 423.599 54.808 424.047 54.808C424.687 54.808 425.151 55.128 425.439 55.768C425.759 56.408 425.919 57.192 425.919 58.12C425.919 60.968 424.943 63.64 422.991 66.136C421.071 68.6 418.383 70.584 414.927 72.088C411.503 73.592 407.503 74.344 402.927 74.344C398.031 74.344 393.631 73.384 389.727 71.464C385.823 69.512 382.735 66.808 380.463 63.352C378.191 59.864 377.055 55.8 377.055 51.16C377.055 45.944 378.095 41.4 380.175 37.528C382.255 33.656 385.279 30.648 389.247 28.504C393.247 26.36 398.063 25.288 403.695 25.288C408.655 25.288 412.799 26.088 416.127 27.688C419.455 29.288 421.951 31.48 423.615 34.264C425.279 37.048 426.111 40.232 426.111 43.816ZM478.966 40.12C478.966 42.552 478.038 44.616 476.182 46.312C474.358 48.008 471.91 48.856 468.838 48.856C465.862 48.856 463.622 48.072 462.118 46.504C460.646 44.904 459.91 42.872 459.91 40.408V38.872C459.91 36.792 459.478 35.16 458.614 33.976C457.75 32.76 456.614 32.152 455.206 32.152C454.086 32.152 453.03 32.568 452.038 33.4C451.078 34.232 450.294 35.512 449.686 37.24C449.078 38.936 448.774 41.096 448.774 43.72C448.774 47.432 449.398 50.536 450.646 53.032C451.926 55.528 453.67 57.416 455.878 58.696C458.086 59.944 460.598 60.568 463.414 60.568C465.462 60.568 467.302 60.328 468.934 59.848C470.598 59.336 472.246 58.36 473.878 56.92C474.806 56.088 475.51 55.528 475.99 55.24C476.47 54.952 476.934 54.808 477.382 54.808C478.022 54.808 478.486 55.128 478.774 55.768C479.094 56.408 479.254 57.192 479.254 58.12C479.254 60.968 478.294 63.64 476.374 66.136C474.486 68.6 471.846 70.584 468.454 72.088C465.062 73.592 461.126 74.344 456.646 74.344C451.75 74.344 447.35 73.384 443.446 71.464C439.574 69.512 436.502 66.808 434.23 63.352C431.958 59.864 430.822 55.8 430.822 51.16C430.822 46.2 431.91 41.768 434.086 37.864C436.294 33.96 439.398 30.888 443.398 28.648C447.43 26.408 452.182 25.288 457.654 25.288C462.038 25.288 465.814 25.96 468.982 27.304C472.182 28.616 474.646 30.392 476.374 32.632C478.102 34.872 478.966 37.368 478.966 40.12ZM486.561 32.968L485.025 32.344C484.321 32.056 483.793 31.688 483.441 31.24C483.089 30.792 482.913 30.248 482.913 29.608C482.913 28.68 483.217 27.976 483.825 27.496C484.465 26.984 485.281 26.728 486.273 26.728H488.913C489.521 26.728 490.081 26.568 490.593 26.248C491.137 25.928 491.825 25.352 492.657 24.52L500.481 16.6C501.537 15.544 502.513 14.76 503.409 14.248C504.337 13.736 505.217 13.48 506.049 13.48C506.977 13.48 507.697 13.784 508.209 14.392C508.753 15 509.025 15.88 509.025 17.032V55.528C509.025 57.864 509.425 59.64 510.225 60.856C511.025 62.072 512.177 62.68 513.681 62.68C514.897 62.68 515.825 62.376 516.465 61.768C517.137 61.16 517.665 60.472 518.049 59.704C518.465 58.904 518.897 58.2 519.345 57.592C519.793 56.984 520.401 56.68 521.169 56.68C521.809 56.68 522.321 56.904 522.705 57.352C523.089 57.8 523.281 58.568 523.281 59.656C523.281 62.376 522.497 64.856 520.929 67.096C519.361 69.304 517.201 71.064 514.449 72.376C511.697 73.688 508.561 74.344 505.041 74.344C499.825 74.344 495.793 73.096 492.945 70.6C490.097 68.072 488.673 64.264 488.673 59.176V36.088C488.673 35.16 488.497 34.488 488.145 34.072C487.825 33.656 487.297 33.288 486.561 32.968ZM502.017 33.544V26.728H519.537C520.529 26.728 521.313 26.952 521.889 27.4C522.497 27.816 522.801 28.424 522.801 29.224C522.801 30.44 522.209 31.464 521.025 32.296C519.841 33.128 517.889 33.544 515.169 33.544H502.017ZM551.974 29.608V62.92C551.974 64.2 552.07 65.112 552.262 65.656C552.454 66.168 552.79 66.536 553.27 66.76L554.326 67.24C555.062 67.56 555.59 67.96 555.91 68.44C556.23 68.92 556.39 69.48 556.39 70.12C556.39 71.016 556.102 71.72 555.526 72.232C554.95 72.744 554.022 73 552.742 73H530.854C529.574 73 528.646 72.744 528.07 72.232C527.494 71.72 527.206 71.016 527.206 70.12C527.206 69.48 527.366 68.92 527.686 68.44C528.006 67.96 528.534 67.56 529.27 67.24L530.326 66.76C530.806 66.536 531.142 66.168 531.334 65.656C531.526 65.112 531.622 64.2 531.622 62.92V40.36C531.622 39.336 531.478 38.616 531.19 38.2C530.934 37.752 530.534 37.448 529.99 37.288L528.934 36.952C528.262 36.728 527.766 36.408 527.446 35.992C527.158 35.576 527.014 35.048 527.014 34.408C527.014 33.64 527.222 33.032 527.638 32.584C528.054 32.136 528.838 31.688 529.99 31.24L540.646 27.112C542.374 26.44 543.734 25.976 544.726 25.72C545.718 25.432 546.598 25.288 547.366 25.288C548.902 25.288 550.054 25.704 550.822 26.536C551.59 27.336 551.974 28.36 551.974 29.608ZM540.742 21.064C537.158 21.064 534.326 20.232 532.246 18.568C530.166 16.904 529.126 14.632 529.126 11.752C529.126 8.904 530.166 6.664 532.246 5.032C534.326 3.4 537.158 2.58399 540.742 2.58399C544.326 2.58399 547.158 3.4 549.238 5.032C551.318 6.664 552.358 8.904 552.358 11.752C552.358 14.632 551.318 16.904 549.238 18.568C547.158 20.232 544.326 21.064 540.742 21.064ZM588.46 25.288C593.9 25.288 598.652 26.328 602.716 28.408C606.78 30.456 609.932 33.336 612.172 37.048C614.444 40.76 615.58 45.08 615.58 50.008C615.58 54.552 614.396 58.664 612.028 62.344C609.66 66.024 606.38 68.952 602.188 71.128C598.028 73.272 593.196 74.344 587.692 74.344C582.252 74.344 577.5 73.304 573.436 71.224C569.372 69.112 566.204 66.2 563.932 62.488C561.692 58.776 560.572 54.488 560.572 49.624C560.572 44.984 561.756 40.84 564.124 37.192C566.492 33.512 569.756 30.616 573.916 28.504C578.108 26.36 582.956 25.288 588.46 25.288ZM591.964 67.384C593.18 67.096 594.108 66.248 594.748 64.84C595.388 63.432 595.676 61.384 595.612 58.696C595.548 56.008 595.068 52.6 594.172 48.472C593.34 44.504 592.396 41.272 591.34 38.776C590.316 36.28 589.196 34.488 587.98 33.4C586.764 32.312 585.5 31.928 584.188 32.248C582.972 32.536 582.044 33.384 581.404 34.792C580.764 36.2 580.476 38.248 580.54 40.936C580.636 43.592 581.116 47 581.98 51.16C582.812 55.096 583.756 58.328 584.812 60.856C585.868 63.352 586.988 65.144 588.172 66.232C589.388 67.288 590.652 67.672 591.964 67.384ZM645.536 29.608V62.92C645.536 64.2 645.632 65.096 645.824 65.608C646.016 66.12 646.352 66.504 646.832 66.76L647.792 67.288C648.848 67.896 649.376 68.776 649.376 69.928C649.376 71.976 648.144 73 645.68 73H624.416C623.136 73 622.208 72.744 621.632 72.232C621.056 71.72 620.768 71.016 620.768 70.12C620.768 69.48 620.928 68.92 621.248 68.44C621.568 67.96 622.096 67.56 622.832 67.24L623.888 66.76C624.368 66.536 624.704 66.168 624.896 65.656C625.088 65.112 625.184 64.2 625.184 62.92V40.36C625.184 39.336 625.04 38.616 624.752 38.2C624.496 37.752 624.096 37.448 623.552 37.288L622.496 36.952C621.824 36.728 621.328 36.408 621.008 35.992C620.72 35.576 620.576 35.048 620.576 34.408C620.576 33.64 620.784 33.032 621.2 32.584C621.616 32.136 622.4 31.688 623.552 31.24L634.208 27.112C635.84 26.472 637.152 26.008 638.144 25.72C639.168 25.432 640.16 25.288 641.12 25.288C642.56 25.288 643.648 25.704 644.384 26.536C645.152 27.336 645.536 28.36 645.536 29.608ZM643.808 41.32L640.928 38.248L642.368 36.904C646.88 32.584 650.8 29.576 654.128 27.88C657.456 26.152 660.512 25.288 663.296 25.288C667.584 25.288 671.04 26.712 673.664 29.56C676.288 32.376 677.6 36.072 677.6 40.648V62.92C677.6 64.2 677.696 65.112 677.888 65.656C678.08 66.168 678.416 66.536 678.896 66.76L679.952 67.24C680.688 67.56 681.216 67.96 681.536 68.44C681.856 68.92 682.016 69.48 682.016 70.12C682.016 71.016 681.728 71.72 681.152 72.232C680.576 72.744 679.648 73 678.368 73H657.104C654.64 73 653.408 71.976 653.408 69.928C653.408 68.776 653.936 67.896 654.992 67.288L655.952 66.76C656.432 66.504 656.768 66.12 656.96 65.608C657.152 65.096 657.248 64.2 657.248 62.92V43.528C657.248 41.48 656.768 39.944 655.808 38.92C654.88 37.896 653.568 37.384 651.872 37.384C650.816 37.384 649.712 37.592 648.56 38.008C647.408 38.424 646.384 39.032 645.488 39.832L643.808 41.32Z" fill="#83888F"/>
</svg>
